<?xml version="1.0" standalone="no"?>
<!DOCTYPE svg PUBLIC "-//W3C//DTD SVG 20010904//EN"
 "http://www.w3.org/TR/2001/REC-SVG-20010904/DTD/svg10.dtd">
<svg version="1.0" xmlns="http://www.w3.org/2000/svg"
 width="1280.000000pt" height="640.000000pt" viewBox="0 0 1280.000000 640.000000"
 preserveAspectRatio="xMidYMid meet">
<metadata>
Created by potrace 1.15, written by Peter Selinger 2001-2017
</metadata>
<g transform="translate(0.000000,640.000000) scale(0.100000,-0.100000)"
fill="#000000" stroke="none">
<path d="M9025 5815 c-11 -13 -112 -124 -225 -247 -260 -284 -2406 -2669
-2425 -2695 -1 -2 -58 61 -126 139 -352 404 -1854 2109 -2129 2417 -173 194
-322 362 -332 372 -22 25 -34 24 -95 -11 -57 -33 -85 -64 -76 -87 5 -14 -6
-15 -83 -9 -238 17 -400 18 -499 2 -269 -41 -491 -147 -673 -320 -153 -147
-250 -304 -528 -858 -213 -426 -320 -617 -425 -759 -157 -211 -360 -364 -560
-423 -164 -47 -449 -61 -654 -31 -110 16 -195 19 -195 8 0 -14 591 -697 1709
-1978 l533 -610 136 -28 c111 -23 166 -29 287 -30 164 -1 219 9 490 90 155 46
214 76 322 166 229 191 321 331 634 962 274 553 394 743 583 921 211 200 444
284 787 284 139 0 273 -14 411 -43 56 -12 57 -13 178 -152 67 -77 131 -150
142 -161 l19 -21 -437 -489 c-846 -945 -1334 -1496 -1334 -1507 0 -9 146 -97
161 -97 25 0 0 -27 1458 1603 161 181 294 327 295 325 4 -5 1237 -1413 1500
-1713 125 -143 239 -266 253 -273 22 -12 30 -9 99 33 41 26 74 51 74 56 0 14
-421 501 -1378 1593 -221 252 -402 462 -402 466 0 7 239 280 304 348 48 50
464 90 658 63 497 -70 756 -316 1114 -1056 310 -644 372 -758 496 -916 98
-126 256 -267 353 -316 85 -43 393 -133 528 -154 103 -16 259 -7 426 25 73 14
134 26 136 28 1 2 244 275 541 608 1166 1308 1714 1928 1722 1951 5 13 -75 11
-213 -6 -265 -32 -517 -9 -700 64 -136 55 -244 131 -365 257 -152 159 -258
330 -462 744 -77 157 -173 353 -214 435 -84 171 -193 359 -264 455 -62 83
-197 215 -276 268 -249 167 -546 239 -879 211 -216 -19 -220 -18 -221 8 -2 31
-20 50 -79 84 -60 35 -74 35 -100 4z m889 -164 c59 -11 112 -23 117 -28 11
-11 -26 -65 -114 -168 -65 -76 -310 -355 -311 -355 -1 0 -37 12 -81 25 -175
56 -458 78 -634 51 -124 -19 -131 -19 -131 -5 0 15 148 185 279 321 113 118
179 160 281 177 91 16 468 5 594 -18z m-6409 -1 c80 -16 147 -51 213 -114 59
-55 342 -379 342 -391 0 -7 -15 -6 -194 16 -146 17 -380 1 -523 -37 -54 -15
-107 -29 -118 -31 -17 -4 -53 33 -180 182 -198 231 -269 325 -257 337 11 11
145 35 272 47 115 12 362 6 445 -9z m7194 -685 c77 -135 176 -331 211 -416 27
-68 24 -89 -27 -157 -65 -85 -354 -402 -368 -402 -7 0 -70 112 -140 250 -124
244 -211 394 -224 388 -10 -4 -152 -159 -304 -330 -72 -82 -136 -148 -143
-148 -7 0 -58 52 -114 115 -103 116 -197 195 -329 276 -39 24 -71 49 -71 55 0
15 51 85 119 164 122 141 304 330 318 330 74 0 327 -202 485 -388 l45 -53 156
174 c85 95 186 202 223 236 79 74 62 84 163 -94z m-8374 42 c55 -57 151 -162
214 -235 l115 -132 49 58 c120 138 297 291 402 347 86 45 87 45 251 -137 200
-222 293 -348 256 -348 -18 0 -222 -140 -277 -190 -32 -29 -94 -92 -138 -141
-44 -49 -88 -89 -96 -88 -9 0 -36 24 -61 53 -156 181 -376 426 -382 426 -16 0
-101 -144 -217 -368 -125 -241 -142 -272 -152 -272 -9 0 -260 282 -340 382
-77 96 -80 116 -35 215 88 195 278 533 299 533 7 0 57 -46 112 -103z m6510
-337 c130 -13 251 -39 278 -60 20 -17 20 -18 3 -45 -21 -33 -275 -322 -354
-405 l-57 -59 -145 29 c-187 38 -353 47 -550 30 -83 -7 -153 -11 -156 -8 -7 7
64 91 268 319 l157 176 108 12 c59 7 117 14 128 15 47 7 228 5 320 -4z m-4378
-40 l73 -12 163 -187 c182 -208 270 -312 265 -316 -2 -2 -59 3 -128 11 -230
24 -394 17 -625 -27 l-110 -21 -48 52 c-110 120 -349 403 -359 426 -10 20 -9
27 3 35 21 14 85 30 174 45 98 16 485 12 592 -6z m5301 -606 c29 -43 101 -176
162 -294 60 -118 116 -224 124 -235 13 -19 19 -15 113 85 55 58 151 161 214
229 63 69 120 126 126 128 6 2 67 -106 137 -245 123 -243 209 -392 226 -392 5
0 104 106 221 235 117 129 216 235 220 235 3 0 42 -41 85 -91 120 -139 212
-220 336 -294 62 -37 115 -69 117 -71 2 -1 -55 -67 -126 -146 -214 -238 -293
-332 -293 -350 0 -16 66 -37 187 -59 133 -24 322 -30 521 -15 87 6 122 6 122
-2 0 -21 -103 -137 -274 -309 -138 -138 -179 -174 -211 -182 -122 -34 -396
-36 -608 -6 -96 14 -187 45 -187 63 0 17 62 96 209 267 173 201 191 223 191
241 0 8 -24 26 -52 40 -105 53 -256 182 -394 337 -34 37 -68 67 -75 67 -8 0
-62 -53 -119 -117 -181 -203 -321 -353 -331 -353 -16 0 -66 89 -198 350 -71
140 -136 264 -145 275 -18 23 3 43 -279 -263 -92 -100 -172 -182 -176 -182 -5
0 -70 120 -144 268 -139 272 -203 385 -217 380 -4 -2 -81 -86 -170 -188 -90
-102 -187 -212 -217 -244 l-55 -59 -122 129 c-136 143 -244 231 -329 269 -84
37 -80 55 37 194 116 138 316 356 329 359 17 3 168 -88 256 -155 40 -31 118
-108 173 -170 l101 -114 25 23 c13 13 112 119 219 236 107 117 200 211 207
209 6 -1 35 -39 64 -83z m-6429 -156 c112 -126 210 -232 219 -235 10 -4 33 15
70 58 129 149 245 245 400 331 l74 40 51 -58 c295 -331 372 -427 365 -461 -2
-11 -27 -29 -63 -46 -87 -42 -207 -140 -334 -273 l-111 -118 -31 30 c-17 16
-117 129 -222 251 l-191 222 -34 -51 c-19 -28 -99 -173 -177 -322 -83 -160
-147 -271 -156 -271 -7 0 -105 101 -216 225 -111 124 -207 226 -212 228 -14 5
-46 -49 -159 -273 -112 -220 -193 -360 -208 -360 -10 0 -107 105 -317 343 -60
68 -115 126 -123 129 -8 3 -66 -48 -151 -134 -132 -133 -262 -237 -337 -268
-66 -28 -70 -20 121 -246 178 -212 234 -286 227 -303 -28 -74 -643 -104 -804
-40 -44 18 -300 273 -409 409 -55 69 -61 80 -45 85 11 4 84 1 164 -7 170 -16
335 -10 492 18 117 21 158 35 158 55 0 17 -87 125 -264 327 -81 93 -146 170
-144 172 1 1 53 32 114 68 149 88 191 123 313 261 58 64 110 115 116 114 6 -2
105 -108 219 -235 114 -128 210 -233 214 -233 19 0 104 144 239 406 54 105
105 201 114 214 15 23 16 22 203 -186 103 -115 203 -221 221 -237 l33 -27 25
42 c13 24 55 104 92 178 106 212 229 412 253 409 4 0 99 -104 211 -231z m4726
-238 c100 -22 179 -54 173 -69 -2 -5 -93 -109 -203 -232 -110 -122 -205 -229
-210 -236 -8 -11 -28 -8 -110 17 -168 52 -263 63 -485 56 -107 -3 -210 -9
-227 -12 -18 -3 -33 -2 -33 3 0 13 184 225 305 352 67 69 118 114 138 120 68
23 158 30 352 27 164 -3 218 -7 300 -26z m-2830 -10 c182 -17 181 -17 299
-144 129 -138 306 -346 306 -359 0 -6 -20 -7 -52 -2 -119 16 -285 22 -390 14
-134 -9 -193 -20 -312 -56 l-88 -27 -17 21 c-9 12 -101 119 -206 238 -104 119
-191 220 -193 225 -5 14 39 38 103 55 150 40 357 53 550 35z m3634 -625 c25
-38 100 -177 167 -308 l121 -239 99 109 c54 59 155 170 223 246 68 76 125 136
127 134 2 -2 64 -124 138 -272 157 -314 211 -405 230 -384 7 8 75 86 152 174
76 88 169 191 205 230 64 66 68 69 91 56 14 -7 54 -47 88 -88 100 -118 246
-241 373 -312 31 -18 57 -35 57 -38 0 -8 -66 -84 -233 -273 -76 -85 -152 -172
-169 -192 l-30 -38 29 -11 c63 -24 224 -59 313 -67 90 -8 250 -3 440 13 l85 8
-21 -24 c-105 -121 -416 -469 -423 -473 -5 -3 -70 -12 -146 -21 -175 -19 -387
-19 -501 0 -98 17 -220 51 -228 63 -3 5 79 103 181 218 102 115 198 225 214
245 l28 36 -22 20 c-12 11 -69 50 -126 88 -105 69 -194 150 -312 284 l-64 74
-213 -231 c-118 -127 -219 -233 -227 -235 -32 -13 -89 81 -246 401 l-118 243
-108 -118 c-281 -305 -315 -339 -333 -328 -6 4 -51 87 -100 184 -49 98 -123
238 -165 310 -41 73 -76 136 -78 140 -1 4 92 114 207 245 239 272 211 259 295
131z m-4625 -164 l203 -234 -84 -141 c-46 -78 -118 -208 -160 -291 -41 -82
-84 -165 -95 -183 l-20 -32 -28 22 c-15 13 -79 79 -140 148 -62 69 -147 162
-188 208 l-75 84 -137 -270 c-132 -261 -199 -372 -224 -372 -14 0 -82 70 -221
225 -54 61 -127 141 -163 178 l-66 68 -50 -58 c-111 -130 -213 -221 -343 -307
l-133 -88 19 -27 c10 -14 105 -125 210 -246 105 -121 191 -225 191 -231 0 -22
-212 -70 -352 -80 -91 -6 -269 5 -438 28 l-85 11 -70 80 c-168 191 -364 421
-362 424 2 1 68 -5 147 -13 167 -18 438 -13 535 9 95 22 175 47 175 54 0 8
-49 68 -215 258 -145 166 -205 239 -205 248 0 3 26 20 58 38 109 62 231 161
349 284 66 69 124 125 130 125 10 0 176 -184 357 -397 43 -51 80 -93 82 -93
11 0 133 219 235 421 66 132 124 239 129 237 5 -2 104 -110 220 -240 116 -131
214 -238 220 -238 5 0 52 86 105 191 143 283 242 443 272 437 8 -2 106 -108
217 -237z m5341 -1177 c119 -142 272 -272 383 -323 31 -15 52 -31 52 -41 0
-16 -227 -289 -323 -387 -60 -62 -107 -87 -147 -78 -73 16 -248 160 -392 323
l-100 112 33 38 c110 126 405 452 409 452 3 0 41 -43 85 -96z m-5879 -449
c-72 -92 -265 -273 -354 -333 -129 -86 -161 -83 -258 20 -64 68 -300 351 -313
376 -13 24 -5 31 64 61 96 42 246 168 371 312 l85 99 218 -248 218 -247 -31
-40z"/>
</g>
</svg>
